<svg xmlns="http://www.w3.org/2000/svg" version="1.1" xmlns:xlink="http://www.w3.org/1999/xlink" xmlns:svgjs="http://svgjs.com/svgjs" width="974" height="974"><svg width="974" height="974" xmlns="http://www.w3.org/2000/svg" xmlns:xlink="http://www.w3.org/1999/xlink" overflow="hidden"><defs><clipPath id="SvgjsClipPath1000"><rect x="981" y="1151" width="974" height="974"></rect></clipPath></defs><g clip-path="url(#clip0)" transform="translate(-981 -1151)"><path d="M1468 1151C1678.13 1151 1857.17 1284.08 1925.45 1470.55L1927.17 1475.63 1926.61 1475.63 1926.6 1475.73C1922.03 1517.23 1884.01 1549.6 1837.79 1549.6 1791.56 1549.6 1778.17 1530.4 1748.97 1475.73L1749.29 1475.63 1748.86 1475.63 1737.22 1456.48C1678.87 1370.11 1580.07 1313.33 1468 1313.33 1288.69 1313.33 1143.33 1458.69 1143.33 1638 1143.33 1817.31 1288.69 1962.67 1468 1962.67 1580.07 1962.67 1678.87 1905.89 1737.22 1819.52L1748.88 1800.33 1617.29 1800.33 1617.29 1800.38 1542.65 1800.38C1501.42 1800.38 1468 1764.03 1468 1719.19 1468 1674.35 1501.42 1638 1542.65 1638L1579.06 1638 1617.29 1638 1792.67 1638 1792.67 1637.96 1955 1637.96 1955 1638C1955 1906.96 1736.96 2125 1468 2125 1199.04 2125 981 1906.96 981 1638 981 1369.04 1199.04 1151 1468 1151Z" fill="#1C64F2" fill-rule="evenodd"></path></g></svg><style>@media (prefers-color-scheme: light) { :root { filter: none; } }
</style></svg>